<svg xmlns="http://www.w3.org/2000/svg" viewBox="0 0 49.9 61.01"><defs><style>.cls-1{fill:#dec41d}.cls-2{fill:#ebd022}.cls-3{fill:#d2ba23}.cls-4{fill:#ead053}.cls-5{fill:#d87729}.cls-6{fill:#fff}.cls-7{fill:#333}.cls-8{fill:#1a1a1a}</style></defs><title>#4 Product of the Month ICON</title><g id="Layer_2" data-name="Layer 2"><g id="Layer_1-2" data-name="Layer 1"><path class="cls-1" d="M21.45 40.63h7v8h-7z"/><path class="cls-2" d="M38.65 36h-27.4A11.26 11.26 0 0 1 0 24.76v-7.41a5.84 5.84 0 0 1 5.84-5.84h38.22a5.84 5.84 0 0 1 5.84 5.84v7.41A11.26 11.26 0 0 1 38.65 36zM5.84 16a1.34 1.34 0 0 0-1.34 1.35v7.41a6.76 6.76 0 0 0 6.75 6.75h27.4a6.76 6.76 0 0 0 6.75-6.75v-7.41A1.34 1.34 0 0 0 44.06 16z"/><rect class="cls-1" x="8.45" width="33" height="8" rx="2" ry="2"/><path class="cls-1" d="M10.45 8h29v21.5A14.5 14.5 0 0 1 24.95 44a14.5 14.5 0 0 1-14.5-14.5V8z"/><path class="cls-3" d="M28.45 43.57v5.06h-1.5a3.45 3.45 0 0 0 0-.51 4.2 4.2 0 0 0-4-4.26l4-.21zM41.45 2v4a2 2 0 0 1-2 2h-29a2 2 0 0 1-2-1.73 2 2 0 0 0 1.33.52h29a2 2 0 0 0 2-2v-4a2.46 2.46 0 0 0 0-.28A2 2 0 0 1 41.45 2zM12 36h-.88a11.16 11.16 0 0 1-6.73-2.35 24.64 24.64 0 0 0 4.78 1.22.93.93 0 0 0 1-1.21 14.16 14.16 0 0 1-.49-2.36 5.29 5.29 0 0 0 .9.16 13.77 13.77 0 0 0 1 3.56A9.42 9.42 0 0 0 12 36zm-1.55-24.49V16H5.84a1.34 1.34 0 0 0-1.34 1.35v-1A1.34 1.34 0 0 1 5.84 15h2.1a1.62 1.62 0 0 0 1.62-1.62v-1.87z"/><path class="cls-4" d="M22.95 43.86v4.77h-1.5v-5.06a14.72 14.72 0 0 0 1.5.29zM39.45 8v21.5a14.52 14.52 0 0 1-16.13 14.41h.38a14.16 14.16 0 0 0 14.16-14.16V13a3.46 3.46 0 0 0-3.45-3.45L10.45 8z"/><circle class="cls-5" cx="24.95" cy="23" r="8.5"/><path class="cls-6" d="M26.3 19h-4v8.61h1.5V25h2.5a3 3 0 0 0 0-6.06zm0 4.56h-2.54v-3.11h2.54a1.53 1.53 0 0 1 0 3.06z"/><path class="cls-7" d="M37 61H12.92a1.67 1.67 0 0 1-1.54-2.29l3.65-9a1.67 1.67 0 0 1 1.54-1h16.75a1.67 1.67 0 0 1 1.54 1l3.65 9A1.67 1.67 0 0 1 37 61z"/><path class="cls-8" d="M37 61H12.92a.39.39 0 0 1-.15 0l23.13-1.18c1.18 0 1.44-1 1-1.85l-2.94-7.31a1.69 1.69 0 0 0-1.54-.84L16 48.74a1.62 1.62 0 0 1 .58-.11h16.74a1.69 1.69 0 0 1 1.55 1.05l3.65 9A1.67 1.67 0 0 1 37 61z"/></g></g></svg>