<svg xmlns="http://www.w3.org/2000/svg" viewBox="0 0 37.5 58.54"><defs><style>.cls-1{fill:#525c72}.cls-2{fill:#c1595e}.cls-3{fill:#ebd022}.cls-4{fill:#dec41d}.cls-5{fill:#e9ce23}.cls-6{fill:#fdf4b6}.cls-7{fill:#e5d14f}.cls-8{fill:#d4bc23}.cls-9{fill:#485165}.cls-10{fill:#a14a4e}</style></defs><title>#2 Product of the Week ICON</title><g id="Layer_2" data-name="Layer 2"><g id="Layer_1-2" data-name="Layer 1"><path class="cls-1" d="M34.25 23.73l-15.5 12-15.5-12V4h31v19.73z"/><path class="cls-2" d="M11.25 4h15v20h-15z"/><path class="cls-1" d="M26.25 22.6a19.05 19.05 0 0 1 5.13 3.34l-12.63 9.78-12.63-9.78a18.76 18.76 0 0 1 20.13-3.34z"/><path class="cls-2" d="M18.75 21a18.78 18.78 0 0 1 7.5 1.56V24h-15v-1.4a18.78 18.78 0 0 1 7.5-1.6z"/><rect class="cls-3" x="1.25" width="35" height="4" rx="1.47" ry="1.47"/><circle class="cls-4" cx="18.75" cy="39.79" r="17.5"/><path class="cls-5" d="M18.75 58.54A18.75 18.75 0 1 1 37.5 39.79a18.77 18.77 0 0 1-18.75 18.75zm0-35A16.25 16.25 0 1 0 35 39.79a16.27 16.27 0 0 0-16.25-16.25z"/><path class="cls-6" d="M19.87 32.08l1.2 3.69a1.18 1.18 0 0 0 1.12.81h3.88a1.18 1.18 0 0 1 .69 2.13L23.62 41a1.18 1.18 0 0 0-.43 1.32l1.2 3.68a1.18 1.18 0 0 1-1.81 1.32L19.44 45a1.18 1.18 0 0 0-1.39 0l-3.14 2.28a1.18 1.18 0 0 1-1.8-1.28l1.2-3.69a1.18 1.18 0 0 0-.43-1.31l-3.14-2.28a1.18 1.18 0 0 1 .69-2.13h3.88a1.18 1.18 0 0 0 1.12-.81l1.2-3.69a1.18 1.18 0 0 1 2.24-.01z"/><path class="cls-7" d="M33.75 39.79a14.62 14.62 0 0 1-9.3 13.46.45.45 0 0 1-.48-.76A16.26 16.26 0 0 0 24 27.1a.45.45 0 0 1 .48-.76 14.61 14.61 0 0 1 9.27 13.45z"/><path class="cls-8" d="M18.75 23.54A16.25 16.25 0 1 0 35 39.79a16.27 16.27 0 0 0-16.25-16.25zm0 31.75a15.5 15.5 0 1 1 15.5-15.5 15.52 15.52 0 0 1-15.5 15.5z"/><path class="cls-9" d="M11.25 21.8v.8a18.9 18.9 0 0 0-5.13 3.34l-.6-.46a19.38 19.38 0 0 1 5.73-3.68zM32 25.48l-.6.46a19.05 19.05 0 0 0-5.13-3.34v-.81A19.74 19.74 0 0 1 32 25.48zM3.25 4h8v1h-8zm23 0h8v1h-8z"/><path class="cls-10" d="M11.25 21.8v.8a18.81 18.81 0 0 1 15 0v-.81a19.34 19.34 0 0 0-7.5-1.5 19.13 19.13 0 0 0-7.5 1.51zm0-17.8h15v1h-15z"/></g></g></svg>