<svg xmlns="http://www.w3.org/2000/svg" viewBox="0 0 44 58.57"><defs><style>.cls-1{fill:#d77824}.cls-2{fill:#b6b6b6}.cls-3{fill:#9a9a9a}.cls-4{fill:#bb6921}.cls-5{fill:#939493}.cls-6{fill:#c5c5c5}.cls-7{fill:#fff}</style></defs><title>#2 Product of the Day ICON</title><g id="Layer_2" data-name="Layer 2"><g id="Layer_1-2" data-name="Layer 1"><path class="cls-1" d="M35.19 34.52L22.5 40.44l8.45 18.13 4.23-7.49 8.46 1.57-8.45-18.13zm-26.38 0l12.69 5.92-8.45 18.13-4.23-7.49-8.46 1.57 8.45-18.13z"/><circle class="cls-2" cx="22" cy="22" r="20.5"/><path class="cls-3" d="M22 44a22 22 0 1 1 22-22 22 22 0 0 1-22 22zm0-41a19 19 0 1 0 19 19A19 19 0 0 0 22 3z"/><path class="cls-4" d="M19.89 43.9l-.45 1a22.79 22.79 0 0 1-12.77-5.78l.44-.94a22 22 0 0 0 12.78 5.72zm17.44-4.78a22.76 22.76 0 0 1-12.77 5.73l-.45-1a21.93 21.93 0 0 0 12.78-5.73z"/><path class="cls-5" d="M22 3a19 19 0 1 0 19 19A19 19 0 0 0 22 3zm0 37a18 18 0 1 1 18-18 18 18 0 0 1-18 18z"/><path class="cls-6" d="M39.13 22a17 17 0 0 1-10.42 15.68.53.53 0 0 1-.54-.89 19.41 19.41 0 0 0 0-29.56.53.53 0 0 1 .54-.89A17 17 0 0 1 39.13 22z"/><path class="cls-7" d="M20.77 27.61l5.3-4.7.28-.27a6 6 0 0 0 1.87-4 6.18 6.18 0 0 0-6.41-5.92 6.18 6.18 0 0 0-6.41 5.92v.25h3.7v-.29a2.5 2.5 0 0 1 2.71-2.22 2.5 2.5 0 0 1 2.69 2.22c0 .49-.43 1-1 1.67l-8.28 7.34h-.08v.1l-.1.13.1.11v3.36h13.8v-3.7z"/></g></g></svg>