<svg xmlns="http://www.w3.org/2000/svg" viewBox="0 0 17.68 17.7"><title>Themes&amp;amp;Formats</title><g data-name="Layer 2"><g data-name="Layer 1"><rect x="2.25" y="2.27" width="15.43" height="15.43" rx="4.22" ry="4.22" fill="#51a6ea" opacity=".2"/><path fill="none" stroke="#51a6ea" stroke-miterlimit="10" stroke-width=".5" d="M15.13 15.13v.5h-.5"/><path fill="none" stroke="#51a6ea" stroke-miterlimit="10" stroke-width=".5" stroke-dasharray="0.99 0.99" d="M13.63 15.63H2.25"/><path fill="none" stroke="#51a6ea" stroke-miterlimit="10" stroke-width=".5" d="M1.75 15.63h-.5v-.5"/><path fill="none" stroke="#51a6ea" stroke-miterlimit="10" stroke-width=".5" stroke-dasharray="1.03 1.03" d="M1.25 14.1V2.26"/><path fill="none" stroke="#51a6ea" stroke-miterlimit="10" stroke-width=".5" d="M1.25 1.75v-.5h.5"/><path fill="none" stroke="#51a6ea" stroke-miterlimit="10" stroke-width=".5" stroke-dasharray="0.99 0.99" d="M2.74 1.25h11.39"/><path fill="none" stroke="#51a6ea" stroke-miterlimit="10" stroke-width=".5" d="M14.63 1.25h.5v.5"/><path fill="none" stroke="#51a6ea" stroke-miterlimit="10" stroke-width=".5" stroke-dasharray="1.03 1.03" d="M15.13 2.78v11.83"/><path fill="#fff" stroke="#51a6ea" stroke-miterlimit="10" stroke-width=".5" d="M.25.25h2v2h-2zm13.88 0h2v2h-2zM.25 14.63h2v2h-2z"/><rect x="3.41" y="9.44" width="3.08" height="3.08" rx=".25" ry=".25" fill="#fff"/><rect x="3.41" y="9.44" width="3.08" height="3.08" rx=".25" ry=".25" fill="none" stroke="#51a6ea" stroke-miterlimit="10" stroke-width=".5"/><path fill="#fff" stroke="#51a6ea" stroke-miterlimit="10" stroke-width=".5" d="M14.13 14.63h2v2h-2z"/><path d="M3.24 6.27c-.07.12 0 .22.13.22h2.87c.14 0 .2-.1.13-.22L4.92 3.68c-.07-.12-.18-.12-.24 0z" fill="#fff"/><path d="M3.24 6.27c-.07.12 0 .22.13.22h2.87c.14 0 .2-.1.13-.22L4.92 3.68c-.07-.12-.18-.12-.24 0z" fill="none" stroke="#51a6ea" stroke-miterlimit="10" stroke-width=".5"/><path fill="#fff" stroke="#51a6ea" stroke-linecap="round" stroke-linejoin="round" stroke-width=".5" d="M7.89 4.54h5.16M7.89 6.07h3.81M7.89 10.4h5.16m-5.16 1.53h3.81"/></g></g></svg>