<svg xmlns="http://www.w3.org/2000/svg" viewBox="0 0 16.9 16.7"><title>Photos&amp;amp;Vectors</title><g data-name="Layer 2"><g data-name="Layer 1"><rect x="1.47" y="1.27" width="15.43" height="15.43" rx="4.22" ry="4.22" fill="#51a6ea" opacity=".2"/><rect x="1.73" y="2" width="10.73" height="4.51" rx=".25" ry=".25" fill="#fff"/><rect x="1.73" y="2" width="10.73" height="4.51" rx=".25" ry=".25" fill="none" stroke="#51a6ea" stroke-miterlimit="10" stroke-width=".5"/><rect x="1.73" y="7.44" width="4.88" height="6.03" rx=".25" ry=".25" fill="#fff"/><rect x="1.73" y="7.44" width="4.88" height="6.03" rx=".25" ry=".25" fill="none" stroke="#51a6ea" stroke-miterlimit="10" stroke-width=".5"/><rect x="7.59" y="7.44" width="4.88" height="6.03" rx=".25" ry=".25" fill="#fff"/><rect x="7.59" y="7.44" width="4.88" height="6.03" rx=".25" ry=".25" fill="none" stroke="#51a6ea" stroke-miterlimit="10" stroke-width=".5"/><path d="M8.12 11.21c0 .07 0 .13.08.13h1.68c.08 0 .12-.06.08-.13l-.85-1.52c0-.07-.11-.07-.15 0zm3.08-1.86a.71.71 0 0 0-.7-.72.74.74 0 0 0-.72.72.71.71 0 0 0 .69.72.68.68 0 0 0 .72-.72z" fill="#51a6ea"/><path data-name="Photos Icon" d="M2.71 12a.13.13 0 0 1-.09 0 .12.12 0 0 1 0-.17l1.06-1a.13.13 0 0 1 .17 0l.81.74a.12.12 0 0 1 0 .17.13.13 0 0 1-.18 0l-.72-.66-.96.92a.13.13 0 0 1-.09 0zm1.51-.67a.13.13 0 0 1-.09 0 .12.12 0 0 1 0-.17l.73-.71a.13.13 0 0 1 .17 0l.81.77a.12.12 0 0 1 0 .17.13.13 0 0 1-.18 0L5 10.7l-.64.62a.13.13 0 0 1-.09 0zm-.61-1.84a.5.5 0 0 0-.5-.49.52.52 0 0 0-.51.51.5.5 0 0 0 .49.51.48.48 0 0 0 .51-.51zM5.39 6a.15.15 0 0 1-.11 0 .14.14 0 0 1 0-.2l1.27-1.29a.15.15 0 0 1 .21 0l1 .89a.14.14 0 0 1 0 .2.15.15 0 0 1-.21 0l-.86-.79L5.5 5.94a.15.15 0 0 1-.11.06zm1.8-.8a.15.15 0 0 1-.11 0 .14.14 0 0 1 0-.2L8 4.09a.15.15 0 0 1 .21 0l1 .92a.14.14 0 0 1 0 .2.15.15 0 0 1-.21 0l-.93-.81-.77.74a.15.15 0 0 1-.1 0zM7 3.24a.6.6 0 0 0-.59-.6.62.62 0 0 0-.6.6.59.59 0 0 0 .58.6.57.57 0 0 0 .6-.6z" fill="#51a6ea"/><rect x=".25" y=".25" width="13.88" height="14.38" rx=".5" ry=".5" fill="none" stroke="#51a6ea" stroke-miterlimit="10" stroke-width=".5" stroke-dasharray="1 1"/><rect x="10.32" y="10.81" width="1.45" height="1.45" rx=".15" ry=".15" fill="#51a6ea"/></g></g></svg>